Coordinates
version=1
nRows=13
nColumns=26
inDegrees=yes

Units are S.I. units (second, meters, Newtons, ...)
Angles are in degrees.

endheader
time	pelvis_tilt	pelvis_list	pelvis_rotation	pelvis_tx	pelvis_ty	pelvis_tz	hip_flexion_r	hip_adduction_r	hip_rotation_r	knee_angle_r	knee_angle_r_beta	ankle_angle_r	subtalar_angle_r	mtp_angle_r	hip_flexion_l	hip_adduction_l	hip_rotation_l	knee_angle_l	knee_angle_l_beta	ankle_angle_l	subtalar_angle_l	mtp_angle_l	lumbar_extension	lumbar_bending	lumbar_rotation
     60.63316327	     -7.08130213	      5.02971818	      6.39147716	      0.18633763	      0.83895256	      0.25998367	     33.33196958	     -9.10683702	      1.25887230	    104.25971216	    104.25971216	      0.22430126	    -22.36894235	      0.00000000	     19.29895635	     13.64322839	      1.76370160	     47.09062353	     47.09062353	     30.47881805	      3.91244608	      0.00000000	    -12.82070918	     -9.41459749	      4.44107569
     60.64316327	     -7.67241099	      4.43693290	      6.21721141	      0.18544214	      0.84191660	      0.26040085	     36.63818091	     -8.15909029	      1.78183216	    102.49266437	    102.49266437	      0.49858751	    -22.14072615	      0.00000000	     16.83357738	     12.81771650	      2.36255628	     45.03641890	     45.03641890	     30.08241469	      4.24106805	      0.00000000	    -11.83559379	     -8.56473859	      3.38775988
     60.65316327	     -7.29902753	      3.94753818	      5.67558965	      0.18589716	      0.84789717	      0.26076842	     38.31099782	     -7.06961469	      2.21527585	     99.65647737	     99.65647737	      0.27968093	    -22.45030094	      0.00000000	     12.54032641	     12.19962252	      3.62490479	     41.39680520	     41.39680520	     28.96567804	      3.44058704	      0.00000000	    -11.85295291	     -7.70445852	      2.45936915
     60.66316327	     -7.57471499	      3.42570243	      5.18222104	      0.18624616	      0.85392043	      0.26087877	     40.30006524	     -5.95158664	      2.59145544	     96.18712562	     96.18712562	      0.21727032	    -22.70139029	      0.00000000	      9.11487733	     11.58903319	      4.63571863	     37.72048848	     37.72048848	     26.57522120	      2.42734228	      0.00000000	    -10.97171997	     -6.81124221	      1.45755811
     60.67316327	     -7.97495691	      2.93385018	      4.62357815	      0.18704119	      0.86050120	      0.26086187	     41.97850083	     -4.81131143	      2.91352708	     92.07724104	     92.07724104	      0.21134985	    -23.05313275	      0.00000000	      5.94659924	     11.06053996	      5.65716218	     34.03671809	     34.03671809	     22.98012125	      0.75670722	      0.00000000	     -9.90418506	     -5.94473218	      0.55430257
     60.68316327	     -8.37486956	      2.20543322	      4.01014015	      0.18866899	      0.86747055	      0.26088258	     43.11738208	     -3.36205644	      3.04917360	     87.22881519	     87.22881519	      0.14060035	    -23.46011531	      0.00000000	      2.99823184	     10.24801932	      6.41047826	     30.57620652	     30.57620652	     18.46894707	     -1.00815375	      0.00000000	     -8.71100007	     -4.78437776	     -0.16674555
     60.69316327	     -8.86020643	      1.37440834	      3.35538934	      0.19067414	      0.87427459	      0.26067192	     43.90573190	     -1.84573592	      3.04404670	     81.76994390	     81.76994390	     -0.12044748	    -24.03209494	      0.00000000	      0.46919156	      9.32255591	      6.74236300	     27.47478319	     27.47478319	     13.28353349	     -2.77858799	      0.00000000	     -7.31665603	     -3.47966989	     -0.91675801
     60.70316327	     -9.28960477	      0.55911682	      2.71863830	      0.19276938	      0.88123761	      0.26024718	     44.19587691	     -0.38017901	      2.99681972	     75.70909120	     75.70909120	     -0.24690344	    -24.53001755	      0.00000000	     -1.77716575	      8.39560186	      6.67386759	     24.71763602	     24.71763602	      7.16485709	     -4.26423630	      0.00000000	     -6.16219832	     -2.10166229	     -1.50455886
     60.71316327	     -9.55542548	     -0.14887244	      2.22084096	      0.19467982	      0.88821755	      0.25980024	     43.89075824	      0.94186041	      2.98230613	     69.04856332	     69.04856332	     -0.41288249	    -24.95740424	      0.00000000	     -3.92548863	      7.51428368	      6.25469458	     22.19442469	     22.19442469	      0.94125415	     -5.55434308	      0.00000000	     -5.23113659	     -0.96006541	     -2.18284140
     60.72316327	     -9.88363974	     -0.77042219	      1.81908415	      0.19697851	      0.89532576	      0.25941708	     43.16232378	      2.20841486	      3.13202117	     61.79139796	     61.79139796	     -0.88904860	    -25.03669999	      0.00000000	     -5.80937158	      6.62402009	      5.64525201	     19.95070549	     19.95070549	     -5.09921617	     -5.72841325	      0.00000000	     -4.37397999	      0.11365176	     -2.93167354
     60.73316327	     -9.88469244	     -1.03427536	      1.45611325	      0.19891051	      0.90194457	      0.25903478	     41.84735098	      3.13190518	      3.51699376	     54.31951899	     54.31951899	     -1.42081686	    -24.55609558	      0.00000000	     -7.80428174	      6.14340415	      5.11074228	     18.07863607	     18.07863607	    -10.42209431	     -6.07397442	      0.00000000	     -3.91767405	      0.64947195	     -3.42127183
     60.74316327	     -9.80905873	     -1.12575392	      1.21482126	      0.20096149	      0.90809824	      0.25860215	     40.15511843	      3.78521656	      3.92489711	     46.61492474	     46.61492474	     -1.94343160	    -23.42616848	      0.00000000	     -9.55602581	      5.85047230	      4.82578865	     16.94218755	     16.94218755	    -14.49479507	     -6.11555410	      0.00000000	     -3.67783432	      0.97388789	     -4.02519774
     60.75316327	     -9.56001280	     -0.96746386	      1.14931744	      0.20291046	      0.91338358	      0.25799096	     38.17899603	      4.05366671	      4.24924536	     39.12346492	     39.12346492	     -2.19373673	    -21.41272481	      0.00000000	    -11.02213558	      5.84942018	      4.84063209	     16.81419476	     16.81419476	    -17.21662568	     -5.81637124	      0.00000000	     -3.68701337	      0.91277529	     -4.74790940
